<?xml version="1.0" standalone="no"?><!DOCTYPE svg PUBLIC "-//W3C//DTD SVG 1.1//EN" "http://www.w3.org/Graphics/SVG/1.1/DTD/svg11.dtd"><svg t="1609745858905" class="icon" viewBox="0 0 1024 1024" version="1.1" xmlns="http://www.w3.org/2000/svg" p-id="1883" width="128" height="128" xmlns:xlink="http://www.w3.org/1999/xlink"><defs><style type="text/css"></style></defs><path d="M513.92512 40.96c-133.12 0-231.60832 74.87488-295.69024 158.72a546.05824 546.05824 0 0 0-71.68 126.07488c-15.91296 39.5264-24.30976 73.1136-24.30976 98.57024 0 41.18528 8.23296 73.5232 17.26464 95.35488 0.32768 0.8192 0.96256 1.20832 1.29024 1.92512-13.1072 4.4032-23.92064 14.5408-31.35488 27.50464-9.9328 17.28512-15.36 40.01792-15.36 67.85024 0 43.1104 15.52384 85.6064 36.47488 118.39488 20.95104 32.80896 46.7968 59.53536 80.65024 59.53536h1.90464c11.28448 37.82656 32.09216 65.67936 55.68512 85.11488 34.816 28.63104 74.87488 42.14784 92.16 51.2C402.80064 953.11872 432.72192 983.04 512 983.04c79.36 0 109.19936-30.0032 151.04-51.83488 17.36704-9.05216 57.344-22.56896 92.16-51.2 23.59296-19.456 44.40064-47.28832 55.68512-85.13536h1.90464c33.85344 0 59.6992-26.70592 80.65024-59.51488 20.95104-32.78848 36.47488-75.28448 36.47488-118.39488 0-27.8528-5.4272-50.56512-15.36-67.85024-7.18848-12.47232-17.5104-22.2208-30.06464-26.86976 0.22528-0.63488 0.38912-1.20832 0.6144-1.92512 8.74496-21.83168 16.65024-54.0672 16.65024-98.54976 0-26.09152-8.15104-60.47744-24.30976-99.84a542.45376 542.45376 0 0 0-72.33536-124.17024C741.04832 114.95424 642.80576 40.96 513.9456 40.96z m0 40.96c113.3568 0 199.51616 64.47104 258.56 140.8a504.95488 504.95488 0 0 1 66.56 115.2c14.78656 36.08576 21.74976 67.91168 21.74976 83.84512 0 39.44448-7.18848 66.64192-14.06976 83.82464-3.21536 8.00768-5.69344 13.12768-7.68 16.65024a136.8064 136.8064 0 0 0-33.93536 12.16512c3.3792-12.16512 7.45472-23.4496 10.89536-32.01024C819.75296 497.52064 839.68 470.016 839.68 430.08c0-9.5232-1.76128-12.55424-4.48512-19.21024a165.15072 165.15072 0 0 0-12.14464-23.04c-10.89536-17.75616-28.09856-39.66976-53.12512-60.78464C719.83104 284.79488 637.60384 245.76 512 245.76c-125.60384 0-207.83104 39.03488-257.92512 81.28512-25.02656 21.11488-42.22976 43.02848-53.12512 60.80512-5.4272 8.86784-9.4208 16.384-12.14464 23.04-2.72384 6.63552-4.48512 9.66656-4.48512 19.18976 0 36.864 16.7936 63.2832 22.40512 71.04512 3.52256 8.47872 7.84384 20.15232 11.50976 32.62464-10.6496-5.34528-21.27872-8.47872-31.35488-10.8544a173.93664 173.93664 0 0 1-8.97024-19.21024c-7.2704-17.53088-14.70464-43.9296-14.70464-79.36 0-15.36 6.5536-46.96064 21.11488-83.21024a505.2416 505.2416 0 0 1 65.92512-116.46976C309.28896 147.43552 396.06272 81.92 513.92512 81.92zM552.96 116.49024L511.36512 158.72 471.6544 117.12512s-57.20064 106.14784-56.32 108.78976c0.88064 2.6624 34.57024 21.11488 34.57024 21.11488l26.23488-87.6544 37.13024 42.22976 33.28-40.96 27.50464 87.67488 34.57024-22.40512zM512 286.72c117.20704 0 188.80512 35.51232 231.69024 71.68 21.42208 18.08384 35.4304 36.31104 44.15488 50.56512 4.4032 7.10656 7.18848 13.59872 8.94976 17.92 0.88064 2.1504 1.67936 4.07552 1.92512 5.12a82.00192 82.00192 0 0 1-7.04512 30.06464C765.8496 440.97536 670.80192 368.64 512 368.64c-158.80192 0-253.8496 72.31488-279.67488 93.45024a82.00192 82.00192 0 0 1-7.04512-30.1056c0.24576-1.024 1.024-2.94912 1.92512-5.12a118.5792 118.5792 0 0 1 8.94976-17.89952c8.72448-14.25408 22.7328-32.48128 44.15488-50.56512C323.19488 322.23232 394.79296 286.72 512 286.72z m0 122.88c40.79616 0 77.824 5.9392 110.71488 14.72512-46.24384 13.76256-67.82976 58.22464-67.82976 58.22464a20.62336 20.62336 0 0 0 37.10976 17.92s19.37408-39.03488 58.88-39.03488c25.43616 0 52.49024 21.13536 52.49024 21.13536 5.28384 4.54656 12.55424 6.144 19.27168 4.23936a20.45952 20.45952 0 0 0 14.00832-13.84448c19.6608 11.83744 29.5936 18.88256 37.10976 24.94464-7.51616 19.61984-15.99488 46.73536-15.99488 73.60512 0 19.0464 5.67296 47.2064 10.87488 78.72512 5.20192 31.5392 10.24 65.20832 10.24 83.84512 0 60.0064-22.3232 91.83232-49.90976 114.54464-27.60704 22.7328-60.7232 33.6896-84.48 46.08C596.48 919.83872 581.67296 942.08 512 942.08s-84.48-22.24128-132.48512-47.37024c-23.7568-12.3904-56.87296-23.3472-84.48-46.08-27.58656-22.71232-49.90976-54.55872-49.90976-114.54464 0-18.6368 5.03808-52.3264 10.24-83.84512 5.20192-31.5392 10.87488-59.67872 10.87488-78.72512 0-26.86976-8.47872-53.98528-15.99488-73.58464 8.15104-6.2464 20.0704-14.336 37.76512-24.9856 2.06848 6.49216 7.2704 11.4688 13.74208 13.37344 6.5536 1.92512 13.59872 0.55296 18.88256-3.74784 0 0 27.0336-21.13536 52.49024-21.13536 39.5264 0 58.88 39.05536 58.88 39.05536a20.62336 20.62336 0 0 0 37.10976-17.92s-21.58592-44.48256-67.82976-58.24512A426.76224 426.76224 0 0 1 512 409.6z m-112.64 122.88c-16.95744 0-30.72 22.48704-30.72 50.56512 0 22.9376 9.1136 42.22976 21.77024 48.64C376.9344 650.24 368.64 672.23552 368.64 696.32c0 5.03808 0.63488 9.8304 1.29024 14.72512-70.32832-17.69472-78.09024-46.08-78.09024-46.08s-14.09024 10.32192-14.09024 57.58976c0 55.68512 45.4656 58.24512 45.4656 58.24512s5.12 54.39488 53.10464 54.39488c20.72576 0 32.31744-8.86784 33.91488-9.58464 2.72384 2.70336 24.63744 34.54976 57.61024 34.54976 25.6 0 43.52-15.36 43.52-15.36s20.0704 14.72512 47.34976 14.72512c30.96576 0 55.05024-33.28 55.05024-33.28s11.75552 8.94976 35.18464 8.94976c23.4496 0 47.2064-16.7936 53.12512-55.02976 19.12832 0 44.17536-24.00256 44.17536-55.68512 0-47.43168-14.09024-58.88-14.09024-58.88-15.68768 22.24128-41.12384 36.16768-78.09024 45.44512 0.65536-4.89472 1.29024-9.68704 1.29024-14.72512 0-24.08448-8.31488-46.08-21.77024-64.63488 12.65664-6.32832 21.77024-25.68192 21.77024-48.64C655.36 554.96704 641.59744 532.48 624.64 532.48S593.92 554.96704 593.92 583.04512c0 4.7104 0.55296 9.1136 1.29024 13.43488A160.19456 160.19456 0 0 0 512 573.44a160.19456 160.19456 0 0 0-83.21024 23.04c0.73728-4.3008 1.29024-8.72448 1.29024-13.43488C430.08 554.96704 416.31744 532.48 399.36 532.48zM154.86976 560.00512c17.2032 0 46.16192 6.08256 68.48512 28.16-1.8432 14.15168-4.62848 33.11616-8.31488 55.02976-5.28384 31.76448-10.87488 65.67936-10.87488 90.89024 0 6.144 0.22528 12.0832 0.63488 17.92-9.68704-4.4032-26.15296-17.2032-39.69024-38.4-17.1008-26.7264-30.06464-63.52896-30.06464-96.64512 0-22.40512 4.46464-38.48192 9.58464-47.37024 5.12-8.86784 9.13408-9.58464 10.24-9.58464z m714.26048 0c1.10592 0 5.12 0.7168 10.24 9.58464 5.12 8.88832 9.58464 24.9856 9.58464 47.37024 0 33.11616-12.96384 69.91872-30.06464 96.64512-13.5168 21.1968-30.0032 33.9968-39.69024 38.4 0.4096-5.8368 0.63488-11.75552 0.63488-17.92 0-25.1904-5.59104-59.12576-10.87488-90.89024a1548.3904 1548.3904 0 0 1-8.31488-55.02976c22.3232-22.07744 51.28192-28.16 68.46464-28.16zM512 614.4c58.63424 0 102.4 38.64576 102.4 81.92s-43.76576 81.92-102.4 81.92-102.4-38.64576-102.4-81.92 43.76576-81.92 102.4-81.92z" p-id="1884" fill="#d81e06"></path></svg>